<svg xmlns="http://www.w3.org/2000/svg" xmlns:xlink="http://www.w3.org/1999/xlink" viewBox="0 0 623 346" width="623" height="346"><path d="M 27.000,79.469 C 27.000,82.969 27.000,82.969 27.000,86.469" stroke-width="5.444" stroke="black" fill="none" stroke-linecap="round"></path><path d="M 27.000,86.469 C 27.000,91.469 27.000,91.469 27.000,96.469" stroke-width="3.956" stroke="black" fill="none" stroke-linecap="round"></path><path d="M 27.000,96.469 C 27.000,102.469 27.000,102.469 27.000,108.469" stroke-width="3.406" stroke="black" fill="none" stroke-linecap="round"></path><path d="M 27.000,108.469 C 27.000,115.469 27.000,115.469 27.000,122.469" stroke-width="3.175" stroke="black" fill="none" stroke-linecap="round"></path><path d="M 27.000,122.469 C 27.000,129.469 27.000,129.469 27.000,136.469" stroke-width="3.111" stroke="black" fill="none" stroke-linecap="round"></path><path d="M 27.000,136.469 C 27.000,143.469 27.000,143.469 27.000,150.469" stroke-width="3.093" stroke="black" fill="none" stroke-linecap="round"></path><path d="M 27.000,150.469 C 27.000,156.469 27.000,156.469 27.000,162.469" stroke-width="3.233" stroke="black" fill="none" stroke-linecap="round"></path><path d="M 27.000,162.469 C 27.000,167.969 27.000,167.969 27.000,173.469" stroke-width="3.303" stroke="black" fill="none" stroke-linecap="round"></path><path d="M 27.000,173.469 C 27.000,177.969 27.000,177.969 27.000,182.469" stroke-width="3.557" stroke="black" fill="none" stroke-linecap="round"></path><path d="M 27.000,182.469 C 27.000,185.469 27.248,185.489 27.000,188.469" stroke-width="3.915" stroke="black" fill="none" stroke-linecap="round"></path><path d="M 27.000,188.469 C 26.748,191.489 26.274,191.450 26.000,194.469" stroke-width="4.071" stroke="black" fill="none" stroke-linecap="round"></path><path d="M 26.000,194.469 C 25.774,196.950 26.000,196.969 26.000,199.469" stroke-width="4.260" stroke="black" fill="none" stroke-linecap="round"></path><path d="M 26.000,199.469 C 26.000,202.969 26.000,202.969 26.000,206.469" stroke-width="4.520" stroke="black" fill="none" stroke-linecap="round"></path><path d="M 26.000,206.469 C 26.000,208.969 26.000,208.969 26.000,211.469" stroke-width="4.782" stroke="black" fill="none" stroke-linecap="round"></path><path d="M 26.000,211.469 C 26.000,213.969 26.000,216.469 26.000,216.469" stroke-width="5.086" stroke="black" fill="none" stroke-linecap="round"></path><path d="M 26.000,216.469 C 26.000,216.469 26.000,213.969 26.000,211.469" stroke-width="5.330" stroke="black" fill="none" stroke-linecap="round"></path><path d="M 26.000,211.469 C 26.000,202.969 26.000,202.969 26.000,194.469" stroke-width="4.175" stroke="black" fill="none" stroke-linecap="round"></path><path d="M 26.000,194.469 C 26.000,191.969 26.000,191.969 26.000,189.469" stroke-width="4.294" stroke="black" fill="none" stroke-linecap="round"></path><path d="M 26.000,189.469 C 26.000,185.469 26.000,185.469 26.000,181.469" stroke-width="3.898" stroke="black" fill="none" stroke-linecap="round"></path><path d="M 26.000,181.469 C 26.000,178.469 25.770,178.452 26.000,175.469" stroke-width="4.031" stroke="black" fill="none" stroke-linecap="round"></path><path d="M 26.000,175.469 C 26.270,171.952 26.533,171.973 27.000,168.469" stroke-width="3.990" stroke="black" fill="none" stroke-linecap="round"></path><path d="M 27.000,168.469 C 27.533,164.473 27.691,164.481 28.000,160.469" stroke-width="3.866" stroke="black" fill="none" stroke-linecap="round"></path><path d="M 28.000,160.469 C 28.191,157.981 27.752,157.944 28.000,155.469" stroke-width="4.151" stroke="black" fill="none" stroke-linecap="round"></path><path d="M 28.000,155.469 C 28.252,152.944 28.748,152.993 29.000,150.469" stroke-width="4.273" stroke="black" fill="none" stroke-linecap="round"></path><path d="M 29.000,150.469 C 29.248,147.993 29.000,147.969 29.000,145.469" stroke-width="4.324" stroke="black" fill="none" stroke-linecap="round"></path><path d="M 29.000,145.469 C 29.000,140.469 29.000,140.469 29.000,135.469" stroke-width="4.319" stroke="black" fill="none" stroke-linecap="round"></path><path d="M 29.000,135.469 C 29.000,132.469 29.000,132.469 29.000,129.469" stroke-width="4.618" stroke="black" fill="none" stroke-linecap="round"></path><path d="M 29.000,129.469 C 29.000,126.469 29.000,126.469 29.000,123.469" stroke-width="4.731" stroke="black" fill="none" stroke-linecap="round"></path><path d="M 29.000,123.469 C 29.000,120.969 28.752,120.944 29.000,118.469" stroke-width="4.838" stroke="black" fill="none" stroke-linecap="round"></path><path d="M 29.000,118.469 C 29.252,115.944 29.500,115.969 30.000,113.469" stroke-width="4.862" stroke="black" fill="none" stroke-linecap="round"></path><path d="M 30.000,113.469 C 30.500,110.969 30.748,110.993 31.000,108.469" stroke-width="5.035" stroke="black" fill="none" stroke-linecap="round"></path><path d="M 31.000,108.469 C 31.248,105.993 31.000,105.969 31.000,103.469" stroke-width="5.083" stroke="black" fill="none" stroke-linecap="round"></path><path d="M 31.000,103.469 C 31.000,100.969 31.000,100.969 31.000,98.469" stroke-width="4.956" stroke="black" fill="none" stroke-linecap="round"></path><path d="M 31.000,98.469 C 31.000,95.969 31.000,95.969 31.000,93.469" stroke-width="5.144" stroke="black" fill="none" stroke-linecap="round"></path><path d="M 31.000,93.469 C 31.000,90.969 30.250,90.719 31.000,88.469" stroke-width="5.207" stroke="black" fill="none" stroke-linecap="round"></path><path d="M 31.000,88.469 C 31.750,86.219 32.250,86.219 34.000,84.469" stroke-width="5.226" stroke="black" fill="none" stroke-linecap="round"></path><path d="M 34.000,84.469 C 35.750,82.719 35.865,82.750 38.000,81.469" stroke-width="5.147" stroke="black" fill="none" stroke-linecap="round"></path><path d="M 38.000,81.469 C 40.865,79.750 41.058,80.074 44.000,78.469" stroke-width="5.123" stroke="black" fill="none" stroke-linecap="round"></path><path d="M 44.000,78.469 C 46.558,77.074 46.333,76.536 49.000,75.469" stroke-width="4.878" stroke="black" fill="none" stroke-linecap="round"></path><path d="M 49.000,75.469 C 51.333,74.536 51.500,74.469 54.000,74.469" stroke-width="5.114" stroke="black" fill="none" stroke-linecap="round"></path><path d="M 54.000,74.469 C 56.500,74.469 56.568,74.739 59.000,75.469" stroke-width="5.193" stroke="black" fill="none" stroke-linecap="round"></path><path d="M 59.000,75.469 C 61.568,76.239 61.667,76.172 64.000,77.469" stroke-width="5.202" stroke="black" fill="none" stroke-linecap="round"></path><path d="M 64.000,77.469 C 66.167,78.672 66.250,78.719 68.000,80.469" stroke-width="5.310" stroke="black" fill="none" stroke-linecap="round"></path><path d="M 68.000,80.469 C 69.750,82.219 69.796,82.302 71.000,84.469" stroke-width="5.309" stroke="black" fill="none" stroke-linecap="round"></path><path d="M 71.000,84.469 C 72.296,86.802 72.230,86.901 73.000,89.469" stroke-width="5.138" stroke="black" fill="none" stroke-linecap="round"></path><path d="M 73.000,89.469 C 73.730,91.901 73.805,91.939 74.000,94.469" stroke-width="5.114" stroke="black" fill="none" stroke-linecap="round"></path><path d="M 74.000,94.469 C 74.305,98.439 74.816,98.661 74.000,102.469" stroke-width="4.708" stroke="black" fill="none" stroke-linecap="round"></path><path d="M 74.000,102.469 C 73.316,105.661 72.387,105.418 71.000,108.469" stroke-width="4.685" stroke="black" fill="none" stroke-linecap="round"></path><path d="M 71.000,108.469 C 69.887,110.918 70.264,111.100 69.000,113.469" stroke-width="4.388" stroke="black" fill="none" stroke-linecap="round"></path><path d="M 69.000,113.469 C 66.264,118.600 66.090,118.525 63.000,123.469" stroke-width="3.595" stroke="black" fill="none" stroke-linecap="round"></path><path d="M 63.000,123.469 C 61.090,126.525 61.067,126.516 59.000,129.469" stroke-width="3.788" stroke="black" fill="none" stroke-linecap="round"></path><path d="M 59.000,129.469 C 57.567,131.516 57.500,131.469 56.000,133.469" stroke-width="4.162" stroke="black" fill="none" stroke-linecap="round"></path><path d="M 56.000,133.469 C 54.500,135.469 54.657,135.605 53.000,137.469" stroke-width="4.248" stroke="black" fill="none" stroke-linecap="round"></path><path d="M 53.000,137.469 C 50.657,140.105 50.636,140.126 48.000,142.469" stroke-width="4.510" stroke="black" fill="none" stroke-linecap="round"></path><path d="M 48.000,142.469 C 46.136,144.126 45.973,143.934 44.000,145.469" stroke-width="4.922" stroke="black" fill="none" stroke-linecap="round"></path><path d="M 44.000,145.469 C 41.473,147.434 41.246,147.223 39.000,149.469" stroke-width="4.959" stroke="black" fill="none" stroke-linecap="round"></path><path d="M 39.000,149.469 C 37.246,151.223 37.500,151.469 36.000,153.469" stroke-width="5.309" stroke="black" fill="none" stroke-linecap="round"></path><path d="M 36.000,153.469 C 34.500,155.469 34.104,155.261 33.000,157.469" stroke-width="5.260" stroke="black" fill="none" stroke-linecap="round"></path><path d="M 33.000,157.469 C 31.604,160.261 32.396,160.676 31.000,163.469" stroke-width="5.071" stroke="black" fill="none" stroke-linecap="round"></path><path d="M 95.000,150.469 C 91.000,150.469 91.000,150.469 87.000,150.469" stroke-width="5.459" stroke="black" fill="none" stroke-linecap="round"></path><path d="M 87.000,150.469 C 82.500,150.469 82.500,150.469 78.000,150.469" stroke-width="4.139" stroke="black" fill="none" stroke-linecap="round"></path><path d="M 78.000,150.469 C 75.500,150.469 75.252,149.650 73.000,150.469" stroke-width="4.646" stroke="black" fill="none" stroke-linecap="round"></path><path d="M 73.000,150.469 C 69.752,151.650 69.657,152.107 67.000,154.469" stroke-width="5.049" stroke="black" fill="none" stroke-linecap="round"></path><path d="M 67.000,154.469 C 65.157,156.107 65.104,156.261 64.000,158.469" stroke-width="4.946" stroke="black" fill="none" stroke-linecap="round"></path><path d="M 64.000,158.469 C 62.604,161.261 62.930,161.447 62.000,164.469" stroke-width="4.786" stroke="black" fill="none" stroke-linecap="round"></path><path d="M 62.000,164.469 C 60.930,167.947 60.510,167.900 60.000,171.469" stroke-width="4.660" stroke="black" fill="none" stroke-linecap="round"></path><path d="M 60.000,171.469 C 59.510,174.900 60.000,174.969 60.000,178.469" stroke-width="4.646" stroke="black" fill="none" stroke-linecap="round"></path><path d="M 60.000,178.469 C 60.000,181.469 59.752,181.489 60.000,184.469" stroke-width="4.910" stroke="black" fill="none" stroke-linecap="round"></path><path d="M 60.000,184.469 C 60.252,187.489 60.204,187.551 61.000,190.469" stroke-width="4.990" stroke="black" fill="none" stroke-linecap="round"></path><path d="M 61.000,190.469 C 61.704,193.051 61.704,193.135 63.000,195.469" stroke-width="4.881" stroke="black" fill="none" stroke-linecap="round"></path><path d="M 63.000,195.469 C 64.204,197.635 64.465,197.496 66.000,199.469" stroke-width="4.884" stroke="black" fill="none" stroke-linecap="round"></path><path d="M 66.000,199.469 C 67.965,201.996 67.488,202.642 70.000,204.469" stroke-width="4.955" stroke="black" fill="none" stroke-linecap="round"></path><path d="M 70.000,204.469 C 72.988,206.642 73.449,206.103 77.000,207.469" stroke-width="4.894" stroke="black" fill="none" stroke-linecap="round"></path><path d="M 77.000,207.469 C 79.949,208.603 79.942,208.704 83.000,209.469" stroke-width="4.771" stroke="black" fill="none" stroke-linecap="round"></path><path d="M 83.000,209.469 C 85.942,210.204 85.979,210.217 89.000,210.469" stroke-width="4.771" stroke="black" fill="none" stroke-linecap="round"></path><path d="M 89.000,210.469 C 91.979,210.717 92.167,211.177 95.000,210.469" stroke-width="4.763" stroke="black" fill="none" stroke-linecap="round"></path><path d="M 95.000,210.469 C 98.167,209.677 98.442,209.515 101.000,207.469" stroke-width="4.907" stroke="black" fill="none" stroke-linecap="round"></path><path d="M 101.000,207.469 C 103.442,205.515 103.370,205.185 105.000,202.469" stroke-width="4.954" stroke="black" fill="none" stroke-linecap="round"></path><path d="M 105.000,202.469 C 106.370,200.185 106.296,200.051 107.000,197.469" stroke-width="4.885" stroke="black" fill="none" stroke-linecap="round"></path><path d="M 107.000,197.469 C 107.796,194.551 107.798,194.493 108.000,191.469" stroke-width="4.789" stroke="black" fill="none" stroke-linecap="round"></path><path d="M 108.000,191.469 C 108.298,186.993 108.000,186.969 108.000,182.469" stroke-width="4.545" stroke="black" fill="none" stroke-linecap="round"></path><path d="M 108.000,182.469 C 108.000,179.969 108.000,179.969 108.000,177.469" stroke-width="4.360" stroke="black" fill="none" stroke-linecap="round"></path><path d="M 108.000,177.469 C 108.000,174.969 108.000,174.969 108.000,172.469" stroke-width="4.351" stroke="black" fill="none" stroke-linecap="round"></path><path d="M 108.000,172.469 C 108.000,168.469 108.305,168.439 108.000,164.469" stroke-width="4.473" stroke="black" fill="none" stroke-linecap="round"></path><path d="M 108.000,164.469 C 107.805,161.939 107.618,161.940 107.000,159.469" stroke-width="4.758" stroke="black" fill="none" stroke-linecap="round"></path><path d="M 107.000,159.469 C 106.118,155.940 104.379,152.055 105.000,152.469" stroke-width="4.863" stroke="black" fill="none" stroke-linecap="round"></path><path d="M 105.000,152.469 C 105.879,153.055 107.048,157.287 110.000,161.469" stroke-width="5.231" stroke="black" fill="none" stroke-linecap="round"></path><path d="M 110.000,161.469 C 113.048,165.787 113.723,165.298 117.000,169.469" stroke-width="3.852" stroke="black" fill="none" stroke-linecap="round"></path><path d="M 117.000,169.469 C 119.223,172.298 119.065,172.428 121.000,175.469" stroke-width="3.870" stroke="black" fill="none" stroke-linecap="round"></path><path d="M 121.000,175.469 C 122.565,177.928 122.424,178.017 124.000,180.469" stroke-width="4.043" stroke="black" fill="none" stroke-linecap="round"></path><path d="M 124.000,180.469 C 126.924,185.017 127.263,184.816 130.000,189.469" stroke-width="4.154" stroke="black" fill="none" stroke-linecap="round"></path><path d="M 130.000,189.469 C 132.263,193.316 131.669,193.681 134.000,197.469" stroke-width="4.321" stroke="black" fill="none" stroke-linecap="round"></path><path d="M 155.000,64.469 C 155.000,69.469 155.000,69.469 155.000,74.469" stroke-width="5.404" stroke="black" fill="none" stroke-linecap="round"></path><path d="M 155.000,74.469 C 155.000,79.469 155.000,79.469 155.000,84.469" stroke-width="3.880" stroke="black" fill="none" stroke-linecap="round"></path><path d="M 155.000,84.469 C 155.000,90.469 155.000,90.469 155.000,96.469" stroke-width="3.453" stroke="black" fill="none" stroke-linecap="round"></path><path d="M 155.000,96.469 C 155.000,103.969 155.000,103.969 155.000,111.469" stroke-width="3.049" stroke="black" fill="none" stroke-linecap="round"></path><path d="M 155.000,111.469 C 155.000,117.969 155.000,117.969 155.000,124.469" stroke-width="3.087" stroke="black" fill="none" stroke-linecap="round"></path><path d="M 155.000,124.469 C 155.000,132.469 155.000,132.469 155.000,140.469" stroke-width="2.890" stroke="black" fill="none" stroke-linecap="round"></path><path d="M 155.000,140.469 C 155.000,147.469 155.000,147.469 155.000,154.469" stroke-width="2.966" stroke="black" fill="none" stroke-linecap="round"></path><path d="M 155.000,154.469 C 155.000,161.969 155.000,161.969 155.000,169.469" stroke-width="2.922" stroke="black" fill="none" stroke-linecap="round"></path><path d="M 155.000,169.469 C 155.000,173.969 155.000,173.969 155.000,178.469" stroke-width="3.413" stroke="black" fill="none" stroke-linecap="round"></path><path d="M 155.000,178.469 C 155.000,180.969 155.000,180.969 155.000,183.469" stroke-width="3.980" stroke="black" fill="none" stroke-linecap="round"></path><path d="M 155.000,183.469 C 155.000,186.469 153.226,187.892 155.000,189.469" stroke-width="4.481" stroke="black" fill="none" stroke-linecap="round"></path><path d="M 155.000,189.469 C 157.726,191.892 159.440,191.013 164.000,191.469" stroke-width="5.106" stroke="black" fill="none" stroke-linecap="round"></path><path d="M 164.000,191.469 C 169.440,192.013 169.500,191.469 175.000,191.469" stroke-width="3.792" stroke="black" fill="none" stroke-linecap="round"></path><path d="M 175.000,191.469 C 181.000,191.469 181.000,191.469 187.000,191.469" stroke-width="3.432" stroke="black" fill="none" stroke-linecap="round"></path><path d="M 187.000,191.469 C 191.000,191.469 191.000,191.469 195.000,191.469" stroke-width="3.698" stroke="black" fill="none" stroke-linecap="round"></path><path d="M 195.000,191.469 C 198.500,191.469 198.500,191.469 202.000,191.469" stroke-width="3.894" stroke="black" fill="none" stroke-linecap="round"></path><path d="M 228.000,226.469 C 228.000,213.469 228.000,213.469 228.000,200.469" stroke-width="5.044" stroke="black" fill="none" stroke-linecap="round"></path><path d="M 228.000,200.469 C 228.000,193.969 228.000,193.969 228.000,187.469" stroke-width="3.583" stroke="black" fill="none" stroke-linecap="round"></path><path d="M 228.000,187.469 C 228.000,181.469 228.000,181.469 228.000,175.469" stroke-width="3.317" stroke="black" fill="none" stroke-linecap="round"></path><path d="M 228.000,175.469 C 228.000,170.469 228.000,170.469 228.000,165.469" stroke-width="3.417" stroke="black" fill="none" stroke-linecap="round"></path><path d="M 228.000,165.469 C 228.000,161.469 228.000,161.469 228.000,157.469" stroke-width="3.643" stroke="black" fill="none" stroke-linecap="round"></path><path d="M 228.000,157.469 C 228.000,154.469 228.000,154.469 228.000,151.469" stroke-width="3.946" stroke="black" fill="none" stroke-linecap="round"></path><path d="M 228.000,151.469 C 228.000,148.469 228.000,148.469 228.000,145.469" stroke-width="4.092" stroke="black" fill="none" stroke-linecap="round"></path><path d="M 228.000,145.469 C 228.000,141.469 228.000,141.469 228.000,137.469" stroke-width="3.846" stroke="black" fill="none" stroke-linecap="round"></path><path d="M 228.000,137.469 C 228.000,133.969 227.711,133.940 228.000,130.469" stroke-width="3.942" stroke="black" fill="none" stroke-linecap="round"></path><path d="M 228.000,130.469 C 228.211,127.940 228.770,127.996 229.000,125.469" stroke-width="4.204" stroke="black" fill="none" stroke-linecap="round"></path><path d="M 229.000,125.469 C 229.270,122.496 228.730,122.442 229.000,119.469" stroke-width="4.124" stroke="black" fill="none" stroke-linecap="round"></path><path d="M 229.000,119.469 C 229.230,116.942 230.432,116.844 230.000,114.469" stroke-width="4.633" stroke="black" fill="none" stroke-linecap="round"></path><path d="M 230.000,114.469 C 229.432,111.344 228.387,111.520 227.000,108.469" stroke-width="5.188" stroke="black" fill="none" stroke-linecap="round"></path><path d="M 227.000,108.469 C 225.887,106.020 227.002,104.670 225.000,103.469" stroke-width="5.104" stroke="black" fill="none" stroke-linecap="round"></path><path d="M 225.000,103.469 C 222.002,101.670 221.013,102.755 217.000,102.469" stroke-width="5.373" stroke="black" fill="none" stroke-linecap="round"></path><path d="M 217.000,102.469 C 214.013,102.255 214.000,102.469 211.000,102.469" stroke-width="4.460" stroke="black" fill="none" stroke-linecap="round"></path><path d="M 211.000,102.469 C 208.500,102.469 208.500,102.469 206.000,102.469" stroke-width="4.337" stroke="black" fill="none" stroke-linecap="round"></path><path d="M 206.000,102.469 C 203.500,102.469 203.475,102.221 201.000,102.469" stroke-width="4.344" stroke="black" fill="none" stroke-linecap="round"></path><path d="M 201.000,102.469 C 198.475,102.721 198.508,103.013 196.000,103.469" stroke-width="4.332" stroke="black" fill="none" stroke-linecap="round"></path><path d="M 196.000,103.469 C 193.008,104.013 189.772,103.786 190.000,104.469" stroke-width="4.601" stroke="black" fill="none" stroke-linecap="round"></path><path d="M 190.000,104.469 C 190.272,105.286 193.459,105.652 197.000,106.469" stroke-width="5.131" stroke="black" fill="none" stroke-linecap="round"></path><path d="M 197.000,106.469 C 199.959,107.152 199.986,107.067 203.000,107.469" stroke-width="4.397" stroke="black" fill="none" stroke-linecap="round"></path><path d="M 203.000,107.469 C 207.486,108.067 207.490,108.147 212.000,108.469" stroke-width="3.862" stroke="black" fill="none" stroke-linecap="round"></path><path d="M 212.000,108.469 C 214.490,108.647 214.500,108.469 217.000,108.469" stroke-width="4.149" stroke="black" fill="none" stroke-linecap="round"></path><path d="M 217.000,108.469 C 221.000,108.469 221.000,108.469 225.000,108.469" stroke-width="3.917" stroke="black" fill="none" stroke-linecap="round"></path><path d="M 225.000,108.469 C 228.500,108.469 228.500,108.469 232.000,108.469" stroke-width="4.397" stroke="black" fill="none" stroke-linecap="round"></path><path d="M 232.000,108.469 C 235.000,108.469 235.027,108.739 238.000,108.469" stroke-width="4.645" stroke="black" fill="none" stroke-linecap="round"></path><path d="M 238.000,108.469 C 240.527,108.239 240.492,107.925 243.000,107.469" stroke-width="4.788" stroke="black" fill="none" stroke-linecap="round"></path><path d="M 243.000,107.469 C 245.992,106.925 246.008,107.013 249.000,106.469" stroke-width="4.761" stroke="black" fill="none" stroke-linecap="round"></path><path d="M 249.000,106.469 C 251.508,106.013 251.475,105.721 254.000,105.469" stroke-width="4.824" stroke="black" fill="none" stroke-linecap="round"></path><path d="M 193.000,227.469 C 195.500,226.969 195.464,226.610 198.000,226.469" stroke-width="5.500" stroke="black" fill="none" stroke-linecap="round"></path><path d="M 198.000,226.469 C 204.464,226.110 204.500,226.469 211.000,226.469" stroke-width="3.570" stroke="black" fill="none" stroke-linecap="round"></path><path d="M 211.000,226.469 C 216.000,226.469 216.000,226.469 221.000,226.469" stroke-width="3.493" stroke="black" fill="none" stroke-linecap="round"></path><path d="M 221.000,226.469 C 227.500,226.469 227.500,226.469 234.000,226.469" stroke-width="3.211" stroke="black" fill="none" stroke-linecap="round"></path><path d="M 234.000,226.469 C 236.500,226.469 236.500,226.469 239.000,226.469" stroke-width="3.895" stroke="black" fill="none" stroke-linecap="round"></path><path d="M 239.000,226.469 C 241.500,226.469 241.500,226.469 244.000,226.469" stroke-width="4.200" stroke="black" fill="none" stroke-linecap="round"></path><path d="M 244.000,226.469 C 247.000,226.469 247.000,226.469 250.000,226.469" stroke-width="4.591" stroke="black" fill="none" stroke-linecap="round"></path><path d="M 250.000,226.469 C 252.500,226.469 252.593,226.950 255.000,226.469" stroke-width="4.793" stroke="black" fill="none" stroke-linecap="round"></path><path d="M 255.000,226.469 C 257.593,225.950 257.406,225.117 260.000,224.469" stroke-width="4.368" stroke="black" fill="none" stroke-linecap="round"></path><path d="M 260.000,224.469 C 263.406,223.617 263.514,224.050 267.000,223.469" stroke-width="4.550" stroke="black" fill="none" stroke-linecap="round"></path><path d="M 267.000,223.469 C 269.514,223.050 273.034,222.321 272.000,222.469" stroke-width="4.784" stroke="black" fill="none" stroke-linecap="round"></path><path d="M 299.000,226.469 C 299.000,219.469 299.000,219.469 299.000,212.469" stroke-width="5.293" stroke="black" fill="none" stroke-linecap="round"></path><path d="M 299.000,212.469 C 299.000,204.469 299.000,204.469 299.000,196.469" stroke-width="3.353" stroke="black" fill="none" stroke-linecap="round"></path><path d="M 299.000,196.469 C 299.000,185.469 298.776,185.465 299.000,174.469" stroke-width="2.732" stroke="black" fill="none" stroke-linecap="round"></path><path d="M 299.000,174.469 C 299.276,160.965 299.071,160.940 300.000,147.469" stroke-width="2.315" stroke="black" fill="none" stroke-linecap="round"></path><path d="M 300.000,147.469 C 301.071,131.940 301.758,131.988 303.000,116.469" stroke-width="2.015" stroke="black" fill="none" stroke-linecap="round"></path><path d="M 303.000,116.469 C 303.758,106.988 303.425,106.964 304.000,97.469" stroke-width="2.424" stroke="black" fill="none" stroke-linecap="round"></path><path d="M 304.000,97.469 C 304.425,90.464 304.500,90.469 305.000,83.469" stroke-width="2.849" stroke="black" fill="none" stroke-linecap="round"></path><path d="M 305.000,83.469 C 305.500,76.469 305.302,72.259 306.000,69.469" stroke-width="3.008" stroke="black" fill="none" stroke-linecap="round"></path><path d="M 306.000,69.469 C 306.302,68.259 306.374,72.494 307.000,75.469" stroke-width="4.385" stroke="black" fill="none" stroke-linecap="round"></path><path d="M 307.000,75.469 C 308.374,81.994 308.626,81.944 310.000,88.469" stroke-width="3.371" stroke="black" fill="none" stroke-linecap="round"></path><path d="M 310.000,88.469 C 310.626,91.444 310.296,91.513 311.000,94.469" stroke-width="3.835" stroke="black" fill="none" stroke-linecap="round"></path><path d="M 311.000,94.469 C 312.796,102.013 313.118,101.940 315.000,109.469" stroke-width="3.161" stroke="black" fill="none" stroke-linecap="round"></path><path d="M 315.000,109.469 C 316.118,113.940 316.000,113.969 317.000,118.469" stroke-width="3.486" stroke="black" fill="none" stroke-linecap="round"></path><path d="M 317.000,118.469 C 318.000,122.969 318.200,122.934 319.000,127.469" stroke-width="3.544" stroke="black" fill="none" stroke-linecap="round"></path><path d="M 319.000,127.469 C 319.700,131.434 319.300,131.503 320.000,135.469" stroke-width="3.730" stroke="black" fill="none" stroke-linecap="round"></path><path d="M 320.000,135.469 C 320.800,140.003 321.050,139.958 322.000,144.469" stroke-width="3.671" stroke="black" fill="none" stroke-linecap="round"></path><path d="M 322.000,144.469 C 323.050,149.458 323.046,149.460 324.000,154.469" stroke-width="3.503" stroke="black" fill="none" stroke-linecap="round"></path><path d="M 324.000,154.469 C 325.046,159.960 325.245,159.935 326.000,165.469" stroke-width="3.366" stroke="black" fill="none" stroke-linecap="round"></path><path d="M 326.000,165.469 C 326.745,170.935 326.422,170.977 327.000,176.469" stroke-width="3.339" stroke="black" fill="none" stroke-linecap="round"></path><path d="M 327.000,176.469 C 327.422,180.477 327.467,180.473 328.000,184.469" stroke-width="3.659" stroke="black" fill="none" stroke-linecap="round"></path><path d="M 328.000,184.469 C 328.467,187.973 328.419,187.983 329.000,191.469" stroke-width="3.873" stroke="black" fill="none" stroke-linecap="round"></path><path d="M 329.000,191.469 C 329.419,193.983 329.270,194.037 330.000,196.469" stroke-width="4.140" stroke="black" fill="none" stroke-linecap="round"></path><path d="M 330.000,196.469 C 330.770,199.037 331.296,198.886 332.000,201.469" stroke-width="4.604" stroke="black" fill="none" stroke-linecap="round"></path><path d="M 332.000,201.469 C 332.796,204.386 332.204,204.551 333.000,207.469" stroke-width="4.271" stroke="black" fill="none" stroke-linecap="round"></path><path d="M 333.000,207.469 C 333.704,210.051 334.033,209.956 335.000,212.469" stroke-width="4.227" stroke="black" fill="none" stroke-linecap="round"></path><path d="M 335.000,212.469 C 336.533,216.456 336.467,216.482 338.000,220.469" stroke-width="4.374" stroke="black" fill="none" stroke-linecap="round"></path><path d="M 338.000,220.469 C 338.967,222.982 339.263,226.206 340.000,225.469" stroke-width="4.850" stroke="black" fill="none" stroke-linecap="round"></path><path d="M 340.000,225.469 C 341.263,224.206 341.405,221.028 342.000,216.469" stroke-width="5.155" stroke="black" fill="none" stroke-linecap="round"></path><path d="M 342.000,216.469 C 342.905,209.528 342.010,209.399 343.000,202.469" stroke-width="3.576" stroke="black" fill="none" stroke-linecap="round"></path><path d="M 343.000,202.469 C 344.010,195.399 344.640,195.496 346.000,188.469" stroke-width="3.128" stroke="black" fill="none" stroke-linecap="round"></path><path d="M 346.000,188.469 C 347.640,179.996 347.542,179.976 349.000,171.469" stroke-width="2.820" stroke="black" fill="none" stroke-linecap="round"></path><path d="M 349.000,171.469 C 350.542,162.476 350.458,162.462 352.000,153.469" stroke-width="2.744" stroke="black" fill="none" stroke-linecap="round"></path><path d="M 352.000,153.469 C 353.458,144.962 353.931,145.021 355.000,136.469" stroke-width="2.777" stroke="black" fill="none" stroke-linecap="round"></path><path d="M 355.000,136.469 C 355.931,129.021 355.401,128.960 356.000,121.469" stroke-width="2.919" stroke="black" fill="none" stroke-linecap="round"></path><path d="M 356.000,121.469 C 356.401,116.460 356.445,116.463 357.000,111.469" stroke-width="3.275" stroke="black" fill="none" stroke-linecap="round"></path><path d="M 357.000,111.469 C 357.445,107.463 357.387,107.450 358.000,103.469" stroke-width="3.587" stroke="black" fill="none" stroke-linecap="round"></path><path d="M 358.000,103.469 C 358.387,100.950 358.748,100.993 359.000,98.469" stroke-width="4.110" stroke="black" fill="none" stroke-linecap="round"></path><path d="M 359.000,98.469 C 359.248,95.993 359.000,95.969 359.000,93.469" stroke-width="4.997" stroke="black" fill="none" stroke-linecap="round"></path><path d="M 359.000,93.469 C 359.000,90.469 358.513,90.390 359.000,87.469" stroke-width="5.324" stroke="black" fill="none" stroke-linecap="round"></path><path d="M 418.000,75.469 C 415.000,84.469 414.811,84.411 412.000,93.469" stroke-width="5.194" stroke="black" fill="none" stroke-linecap="round"></path><path d="M 412.000,93.469 C 410.311,98.911 410.869,99.095 409.000,104.469" stroke-width="3.764" stroke="black" fill="none" stroke-linecap="round"></path><path d="M 409.000,104.469 C 406.869,110.595 406.461,110.453 404.000,116.469" stroke-width="3.401" stroke="black" fill="none" stroke-linecap="round"></path><path d="M 404.000,116.469 C 401.961,121.453 401.917,121.437 400.000,126.469" stroke-width="3.431" stroke="black" fill="none" stroke-linecap="round"></path><path d="M 400.000,126.469 C 397.917,131.937 398.172,132.038 396.000,137.469" stroke-width="3.361" stroke="black" fill="none" stroke-linecap="round"></path><path d="M 396.000,137.469 C 394.172,142.038 393.633,141.842 392.000,146.469" stroke-width="3.549" stroke="black" fill="none" stroke-linecap="round"></path><path d="M 392.000,146.469 C 390.633,150.342 391.062,150.485 390.000,154.469" stroke-width="3.661" stroke="black" fill="none" stroke-linecap="round"></path><path d="M 390.000,154.469 C 389.062,157.985 388.883,157.938 388.000,161.469" stroke-width="3.851" stroke="black" fill="none" stroke-linecap="round"></path><path d="M 388.000,161.469 C 386.383,167.938 386.996,168.147 385.000,174.469" stroke-width="3.395" stroke="black" fill="none" stroke-linecap="round"></path><path d="M 385.000,174.469 C 383.996,177.647 383.287,177.380 382.000,180.469" stroke-width="3.774" stroke="black" fill="none" stroke-linecap="round"></path><path d="M 382.000,180.469 C 380.787,183.380 381.063,183.491 380.000,186.469" stroke-width="3.996" stroke="black" fill="none" stroke-linecap="round"></path><path d="M 380.000,186.469 C 378.563,190.491 378.253,190.398 377.000,194.469" stroke-width="4.315" stroke="black" fill="none" stroke-linecap="round"></path><path d="M 377.000,194.469 C 376.253,196.898 376.670,197.014 376.000,199.469" stroke-width="4.703" stroke="black" fill="none" stroke-linecap="round"></path><path d="M 376.000,199.469 C 375.170,202.514 374.868,202.430 374.000,205.469" stroke-width="4.731" stroke="black" fill="none" stroke-linecap="round"></path><path d="M 374.000,205.469 C 372.868,209.430 373.000,209.469 372.000,213.469" stroke-width="4.799" stroke="black" fill="none" stroke-linecap="round"></path><path d="M 372.000,213.469 C 371.000,217.469 371.210,217.537 370.000,221.469" stroke-width="4.566" stroke="black" fill="none" stroke-linecap="round"></path><path d="M 417.000,74.469 C 417.000,77.969 417.000,77.969 417.000,81.469" stroke-width="5.427" stroke="black" fill="none" stroke-linecap="round"></path><path d="M 417.000,81.469 C 417.000,87.969 417.000,87.969 417.000,94.469" stroke-width="3.638" stroke="black" fill="none" stroke-linecap="round"></path><path d="M 417.000,94.469 C 417.000,102.469 417.000,102.469 417.000,110.469" stroke-width="3.018" stroke="black" fill="none" stroke-linecap="round"></path><path d="M 417.000,110.469 C 417.000,119.469 417.000,119.469 417.000,128.469" stroke-width="2.812" stroke="black" fill="none" stroke-linecap="round"></path><path d="M 417.000,128.469 C 417.000,138.469 417.000,138.469 417.000,148.469" stroke-width="2.649" stroke="black" fill="none" stroke-linecap="round"></path><path d="M 417.000,148.469 C 417.000,155.469 417.000,155.469 417.000,162.469" stroke-width="2.885" stroke="black" fill="none" stroke-linecap="round"></path><path d="M 417.000,162.469 C 417.000,172.469 417.000,172.469 417.000,182.469" stroke-width="2.668" stroke="black" fill="none" stroke-linecap="round"></path><path d="M 417.000,182.469 C 417.000,190.969 417.000,190.969 417.000,199.469" stroke-width="2.709" stroke="black" fill="none" stroke-linecap="round"></path><path d="M 417.000,199.469 C 417.000,206.969 416.644,206.998 417.000,214.469" stroke-width="2.899" stroke="black" fill="none" stroke-linecap="round"></path><path d="M 417.000,214.469 C 417.144,217.498 417.456,217.477 418.000,220.469" stroke-width="3.670" stroke="black" fill="none" stroke-linecap="round"></path><path d="M 387.000,168.469 C 389.500,168.469 389.500,168.469 392.000,168.469" stroke-width="5.481" stroke="black" fill="none" stroke-linecap="round"></path><path d="M 392.000,168.469 C 396.000,168.469 396.000,168.469 400.000,168.469" stroke-width="4.206" stroke="black" fill="none" stroke-linecap="round"></path><path d="M 400.000,168.469 C 403.500,168.469 403.500,168.469 407.000,168.469" stroke-width="3.939" stroke="black" fill="none" stroke-linecap="round"></path><path d="M 569.000,89.469 C 566.000,89.969 565.819,89.412 563.000,90.469" stroke-width="5.516" stroke="black" fill="none" stroke-linecap="round"></path><path d="M 563.000,90.469 C 557.819,92.412 557.921,92.819 553.000,95.469" stroke-width="3.762" stroke="black" fill="none" stroke-linecap="round"></path><path d="M 553.000,95.469 C 544.921,99.819 544.764,99.589 537.000,104.469" stroke-width="2.954" stroke="black" fill="none" stroke-linecap="round"></path><path d="M 537.000,104.469 C 527.264,110.589 527.306,110.700 518.000,117.469" stroke-width="2.535" stroke="black" fill="none" stroke-linecap="round"></path><path d="M 518.000,117.469 C 505.306,126.700 505.343,126.771 493.000,136.469" stroke-width="2.053" stroke="black" fill="none" stroke-linecap="round"></path><path d="M 493.000,136.469 C 484.343,143.271 484.598,143.591 476.000,150.469" stroke-width="2.316" stroke="black" fill="none" stroke-linecap="round"></path><path d="M 476.000,150.469 C 467.098,157.591 466.746,157.181 458.000,164.469" stroke-width="2.376" stroke="black" fill="none" stroke-linecap="round"></path><path d="M 458.000,164.469 C 454.746,167.181 451.306,168.155 452.000,170.469" stroke-width="3.197" stroke="black" fill="none" stroke-linecap="round"></path><path d="M 452.000,170.469 C 452.806,173.155 456.416,172.686 461.000,174.469" stroke-width="4.437" stroke="black" fill="none" stroke-linecap="round"></path><path d="M 461.000,174.469 C 465.416,176.186 465.602,175.709 470.000,177.469" stroke-width="3.824" stroke="black" fill="none" stroke-linecap="round"></path><path d="M 470.000,177.469 C 475.602,179.709 475.426,180.146 481.000,182.469" stroke-width="3.432" stroke="black" fill="none" stroke-linecap="round"></path><path d="M 481.000,182.469 C 487.426,185.146 487.535,184.883 494.000,187.469" stroke-width="3.187" stroke="black" fill="none" stroke-linecap="round"></path><path d="M 494.000,187.469 C 500.035,189.883 500.095,189.762 506.000,192.469" stroke-width="3.187" stroke="black" fill="none" stroke-linecap="round"></path><path d="M 506.000,192.469 C 512.095,195.262 511.883,195.750 518.000,198.469" stroke-width="3.157" stroke="black" fill="none" stroke-linecap="round"></path><path d="M 518.000,198.469 C 520.883,199.750 521.051,199.335 524.000,200.469" stroke-width="3.763" stroke="black" fill="none" stroke-linecap="round"></path><path d="M 524.000,200.469 C 527.551,201.835 527.544,201.874 531.000,203.469" stroke-width="3.847" stroke="black" fill="none" stroke-linecap="round"></path><path d="M 531.000,203.469 C 534.044,204.874 533.853,205.420 537.000,206.469" stroke-width="4.406" stroke="black" fill="none" stroke-linecap="round"></path><path d="M 537.000,206.469 C 539.853,207.420 540.083,206.673 543.000,207.469" stroke-width="4.910" stroke="black" fill="none" stroke-linecap="round"></path><path d="M 543.000,207.469 C 545.583,208.173 545.649,208.186 548.000,209.469" stroke-width="4.843" stroke="black" fill="none" stroke-linecap="round"></path><path d="M 548.000,209.469 C 551.149,211.186 551.120,211.308 554.000,213.469" stroke-width="4.663" stroke="black" fill="none" stroke-linecap="round"></path><path d="M 554.000,213.469 C 557.120,215.808 561.027,219.154 560.000,218.469" stroke-width="4.601" stroke="black" fill="none" stroke-linecap="round"></path><path d="M 458.000,92.469 C 458.000,96.969 458.000,96.969 458.000,101.469" stroke-width="5.411" stroke="black" fill="none" stroke-linecap="round"></path><path d="M 458.000,101.469 C 458.000,105.969 458.000,105.969 458.000,110.469" stroke-width="4.002" stroke="black" fill="none" stroke-linecap="round"></path><path d="M 458.000,110.469 C 458.000,116.969 458.000,116.969 458.000,123.469" stroke-width="3.328" stroke="black" fill="none" stroke-linecap="round"></path><path d="M 458.000,123.469 C 458.000,132.469 458.000,132.469 458.000,141.469" stroke-width="2.887" stroke="black" fill="none" stroke-linecap="round"></path><path d="M 458.000,141.469 C 458.000,147.469 458.000,147.469 458.000,153.469" stroke-width="3.163" stroke="black" fill="none" stroke-linecap="round"></path><path d="M 458.000,153.469 C 458.000,161.969 458.000,161.969 458.000,170.469" stroke-width="2.845" stroke="black" fill="none" stroke-linecap="round"></path><path d="M 458.000,170.469 C 458.000,180.469 458.000,180.469 458.000,190.469" stroke-width="2.657" stroke="black" fill="none" stroke-linecap="round"></path><path d="M 458.000,190.469 C 458.000,193.469 458.000,193.469 458.000,196.469" stroke-width="3.555" stroke="black" fill="none" stroke-linecap="round"></path><path d="M 458.000,196.469 C 458.000,199.469 458.000,199.469 458.000,202.469" stroke-width="3.914" stroke="black" fill="none" stroke-linecap="round"></path><path d="M 458.000,202.469 C 458.000,205.469 458.000,205.469 458.000,208.469" stroke-width="4.470" stroke="black" fill="none" stroke-linecap="round"></path></svg>